<svg width="24" height="24" viewBox="0 0 24 24" fill="none" xmlns="http://www.w3.org/2000/svg">
<path d="M17.5049 21.0026C15.5719 21.0026 14.0049 19.4356 14.0049 17.5026C14.0049 15.5696 15.5719 14.0026 17.5049 14.0026C19.4379 14.0026 21.0049 15.5696 21.0049 17.5026C21.0049 19.4356 19.4379 21.0026 17.5049 21.0026ZM17.5049 19.0026C18.3333 19.0026 19.0049 18.3311 19.0049 17.5026C19.0049 16.6742 18.3333 16.0026 17.5049 16.0026C16.6765 16.0026 16.0049 16.6742 16.0049 17.5026C16.0049 18.3311 16.6765 19.0026 17.5049 19.0026ZM6.50488 10.0026C4.57189 10.0026 3.00488 8.43568 3.00488 6.50269C3.00488 4.56969 4.57189 3.00269 6.50488 3.00269C8.43788 3.00269 10.0049 4.56969 10.0049 6.50269C10.0049 8.43568 8.43788 10.0026 6.50488 10.0026ZM6.50488 8.00269C7.33331 8.00269 8.00488 7.33111 8.00488 6.50269C8.00488 5.67426 7.33331 5.00269 6.50488 5.00269C5.67646 5.00269 5.00488 5.67426 5.00488 6.50269C5.00488 7.33111 5.67646 8.00269 6.50488 8.00269ZM19.076 3.51741L20.4902 4.93162L4.93382 20.4879L3.5196 19.0737L19.076 3.51741Z" fill="black"/>
</svg>
