<svg width="187" height="31" viewBox="0 0 187 31" fill="none" xmlns="http://www.w3.org/2000/svg">
    <path d="M20.6762 15.1802C20.6762 17.6534 19.6328 19.5438 17.5461 20.8514C15.4888 22.1307 13.0494 22.7703 10.2279 22.7703C8.3469 22.7703 6.4806 22.5571 4.629 22.1307C2.7774 21.6758 1.2344 21.0646 0 20.2971L0.969886 14.1994C1.88099 14.8817 3.15948 15.4929 4.80535 16.033C6.4806 16.5731 8.24403 16.8432 10.0956 16.8432C11.8297 16.8432 12.6967 16.4736 12.6967 15.7345C12.6967 15.5924 12.6526 15.4645 12.5644 15.3508C12.5057 15.237 12.3881 15.1233 12.2118 15.0096C12.0648 14.8959 11.9031 14.7964 11.7268 14.7111C11.5505 14.6259 11.3006 14.5406 10.9773 14.4553C10.6541 14.3416 10.3601 14.2421 10.0956 14.1568C9.86051 14.0715 9.52252 13.972 9.08166 13.8583C8.6408 13.7162 8.25873 13.5883 7.93543 13.4746C5.81932 12.7639 4.29101 11.9963 3.35052 11.1719C2.41002 10.3191 1.93977 9.18203 1.93977 7.76066C1.93977 5.25905 2.93905 3.34021 4.9376 2.00413C6.93616 0.668042 9.41965 0 12.3881 0C16.0913 0 19.1626 0.824392 21.602 2.47318L20.588 8.44292C17.9429 6.70885 15.3124 5.84182 12.6967 5.84182C10.9627 5.84182 10.0956 6.19716 10.0956 6.90784C10.0956 7.27739 10.3455 7.57588 10.8451 7.8033C11.3447 8.03072 12.344 8.35763 13.8429 8.78404C14.225 8.89775 14.5336 8.98304 14.7687 9.03989C16.7967 9.66529 18.2809 10.4613 19.2214 11.4278C20.1913 12.3659 20.6762 13.6167 20.6762 15.1802Z" fill="#8CA1EE"/>
    <path d="M21.9361 12.11C21.9361 8.67033 23.2293 5.79917 25.8156 3.49656C28.4314 1.16552 31.6644 0 35.5145 0C38.1596 0 40.5697 0.554333 42.7446 1.663L41.6865 7.93122C39.8055 7.02155 37.9539 6.56671 36.1317 6.56671C34.2507 6.56671 32.7077 7.04998 31.5027 8.01651C30.2977 8.95461 29.6952 10.2054 29.6952 11.7689C29.6952 13.3324 30.3124 14.4979 31.5468 15.2655C32.8106 16.033 34.236 16.4168 35.8231 16.4168C37.5571 16.4168 39.2324 16.0757 40.8489 15.3934L39.7908 21.6616C37.9686 22.4007 36.0141 22.7703 33.9274 22.7703C30.5475 22.7703 27.6966 21.818 25.3748 19.9133C23.0823 18.0087 21.9361 15.4076 21.9361 12.11Z" fill="#8CA1EE"/>
    <path d="M46.0827 0.554333H53.8859L53.4891 3.02751C55.5758 1.00917 57.8683 0 60.3665 0C61.8948 0 63.2026 0.369555 64.2901 1.10867C65.4069 1.81935 66.127 2.61531 66.4503 3.49656C68.6546 1.16552 71.285 0 74.3416 0C76.3402 0 77.9567 0.58276 79.1911 1.74828C80.4549 2.88537 81.0868 4.53416 81.0868 6.69464C81.0868 7.40532 80.9398 8.58505 80.6459 10.2338L78.7061 22.216H70.903L72.7546 10.7882C72.8721 10.2196 72.9309 9.66529 72.9309 9.12517C72.9309 8.27235 72.6958 7.66116 72.2255 7.29161C71.7553 6.89363 71.1675 6.69464 70.4621 6.69464C68.9632 6.69464 67.7288 7.32004 66.7589 8.57084L64.5546 22.216H56.7514L58.5589 11.0014C58.7059 10.4897 58.7794 9.86428 58.7794 9.12517C58.7794 8.27235 58.5443 7.66116 58.074 7.29161C57.6331 6.89363 57.0747 6.69464 56.3987 6.69464C54.841 6.69464 53.5626 7.32004 52.5633 8.57084L50.359 22.216H42.5558L46.0827 0.554333Z" fill="#8CA1EE"/>
    <path d="M109.945 0.554333H117.748L114.618 19.956C114.324 21.9175 113.678 23.6373 112.678 25.1155C111.679 26.5938 110.459 27.7451 109.019 28.5695C107.608 29.3939 106.11 30.005 104.522 30.403C102.935 30.801 101.26 31 99.4967 31C95.6465 31 92.781 30.3888 90.9 29.1664L91.958 22.5997C94.1329 23.9927 96.6899 24.6891 99.6289 24.6891C103.891 24.6891 106.301 23.0261 106.859 19.7001L107.035 18.4635C105.125 20.3113 102.847 21.2352 100.202 21.2352C97.5275 21.2352 95.382 20.3398 93.7655 18.5488C92.1785 16.7579 91.3849 14.5406 91.3849 11.8968C91.3849 8.76983 92.3989 6.01238 94.4268 3.62448C96.4842 1.23659 99.291 0.0426406 102.847 0.0426406C105.639 0.0426406 107.888 0.966529 109.592 2.81431L109.945 0.554333ZM103.464 15.0523C105.198 15.0523 106.683 14.37 107.917 13.0055L108.667 8.44292C107.667 7.04998 106.198 6.35351 104.258 6.35351C102.847 6.35351 101.672 6.83677 100.731 7.8033C99.82 8.7414 99.3644 9.89271 99.3644 11.2572C99.3644 12.4512 99.7318 13.3893 100.467 14.0715C101.231 14.7254 102.23 15.0523 103.464 15.0523Z" fill="#8CA1EE"/>
    <path d="M128.271 0.554333L126.508 11.4278C126.39 11.911 126.331 12.508 126.331 13.2187C126.331 14.1852 126.596 14.8959 127.125 15.3508C127.654 15.8056 128.315 16.033 129.109 16.033C130.52 16.033 131.813 15.4218 132.988 14.1994L135.237 0.554333H143.04L139.513 22.216H131.71L132.107 19.7428C129.902 21.7611 127.551 22.7703 125.053 22.7703C122.907 22.7703 121.232 22.1165 120.027 20.8088C118.852 19.5011 118.264 17.7529 118.264 15.564C118.264 14.6259 118.352 13.6167 118.528 12.5365L120.468 0.554333H128.271Z" fill="#8CA1EE"/>
    <path d="M162.97 0.0852809L161.779 7.37689C160.78 7.14947 159.913 7.03576 159.178 7.03576C156.386 7.03576 154.344 7.9028 153.051 9.63686L151.023 22.216H143.219L146.746 0.554333H154.549L153.976 4.09354C154.652 3.09858 155.754 2.17469 157.283 1.32187C158.84 0.440624 160.413 0 162 0C162.5 0 162.823 0.028427 162.97 0.0852809Z" fill="#8CA1EE"/>
    <path d="M172.231 0.554333L170.468 11.4278C170.35 11.911 170.292 12.508 170.292 13.2187C170.292 14.1852 170.556 14.8959 171.085 15.3508C171.614 15.8056 172.275 16.033 173.069 16.033C174.48 16.033 175.773 15.4218 176.948 14.1994L179.197 0.554333H187L183.473 22.216H175.67L176.067 19.7428C173.862 21.7611 171.511 22.7703 169.013 22.7703C166.868 22.7703 165.192 22.1165 163.987 20.8088C162.812 19.5011 162.224 17.7529 162.224 15.564C162.224 14.6259 162.312 13.6167 162.488 12.5365L164.428 0.554333H172.231Z" fill="#8CA1EE"/>
</svg>
