<svg width="64" height="64" viewBox="-3.901 -3.739 71.275 71.275" fill="none" xmlns="http://www.w3.org/2000/svg">
<path d="M 31.7118,0.0791282 C 31.6456,0.128742 31.596,0.591808 31.596,1.10449 C 31.596,1.61717 31.2652,7.57088 30.8518,14.3515 C 30.4549,21.1321 30.1076,27.1023 30.091,27.615 C 30.0579,28.4585 30.0249,28.5412 29.7933,28.3592 C 29.3468,28.0119 19.1428,18.9656 18.4978,18.3537 C 16.844,16.7826 18.3325,18.6018 23.145,24.0263 L 28.4372,29.98 L 27.5772,30.0957 C 27.0976,30.1619 20.7305,30.5588 13.4041,30.9888 C 6.07774,31.4188 0.0578833,31.7826 0.0248071,31.8157 C -0.00826903,31.8488 -0.00826903,31.9149 0.0248071,31.948 C 0.0578833,31.9811 6.07774,32.3449 13.4041,32.7749 C 20.7305,33.2049 27.0976,33.6018 27.5772,33.668 L 28.4372,33.7837 L 23.145,39.7374 C 20.2509,43.012 17.8694,45.7408 17.8694,45.8234 C 17.8694,45.9061 18.8121,45.1123 19.9863,44.087 C 23.7404,40.7297 29.5287,35.6029 29.7933,35.4045 C 30.0249,35.2225 30.0579,35.3052 30.091,36.1487 C 30.1076,36.6614 30.4549,42.6316 30.8518,49.4122 C 31.2652,56.1928 31.596,62.1631 31.596,62.6757 C 31.596,63.1884 31.6787,63.668 31.7614,63.7176 M 31.7118,63.7176 C 31.7945,63.668 31.8772,63.1884 31.8772,62.6757 C 31.877199999999995,62.1631 32.208,56.1928 32.621399999999994,49.4122 C 33.018299999999996,42.6316 33.3656,36.6614 33.3822,36.1487 C 33.4153,35.3052 33.4483,35.2225 33.6799,35.4045 C 33.9445,35.6029 39.7328,40.7297 43.4869,44.087 C 44.6611,45.1123 45.6038,45.9061 45.6038,45.8234 C 45.60379999999999,45.7408 43.22229999999999,43.012 40.328199999999995,39.7374 L 35.036,33.7837 L 35.896,33.668 C 36.3756,33.6018 42.7427,33.2049 50.0691,32.7749 C 57.39546,32.3449 63.415316700000005,31.9811 63.4483929,31.948 C 63.48146903,31.9149 63.48146903,31.8488 63.4483929,31.8157 C 63.4153167,31.7826 57.39546,31.4188 50.0691,30.9888 C 42.7427,30.5588 36.375600000000006,30.1619 35.896,30.0957 L 35.036,29.98 L 40.328199999999995,24.0263 C 45.140699999999995,18.6018 46.6292,16.7826 44.97539999999999,18.3537 C 44.3304,18.9656 34.126400000000004,28.0119 33.6799,28.3592 C 33.4483,28.5412 33.4153,28.4585 33.3822,27.615 C 33.36559999999999,27.102300000000003 33.018299999999996,21.1321 32.621399999999994,14.3515 C 32.208,7.570880000000001 31.8772,1.61717 31.8772,1.10449 C 31.8772,0.591808 31.827599999999997,0.128742 31.7614,0.0791282 Z" fill="black"/>
</svg>
