<?xml version="1.0" encoding="utf-8"?><svg xmlns="http://www.w3.org/2000/svg" xmlns:xlink="http://www.w3.org/1999/xlink">
    <symbol viewBox="0 0 24 24" id="arrow-down" xmlns="http://www.w3.org/2000/svg">
        <path d="m13 16.172 5.364-5.364 1.414 1.414L12 20l-7.778-7.778 1.414-1.414L11 16.172V4h2v12.172Z" />
    </symbol>
    <symbol viewBox="0 0 24 24" id="arrow-left" xmlns="http://www.w3.org/2000/svg">
        <path d="m7.828 10.778 5.364-5.364L11.778 4 4 11.778l7.778 7.778 1.414-1.414-5.364-5.364H20v-2H7.828Z" />
    </symbol>
    <symbol viewBox="0 0 24 24" id="arrow-right" xmlns="http://www.w3.org/2000/svg">
        <path d="m16.172 11-5.364-5.364 1.414-1.414L20 12l-7.778 7.778-1.414-1.414L16.172 13H4v-2h12.172Z" />
    </symbol>
    <symbol viewBox="0 0 24 24" id="bag" xmlns="http://www.w3.org/2000/svg">
        <path d="M20.005 22h-16a1 1 0 0 1-1-1V3a1 1 0 0 1 1-1h16a1 1 0 0 1 1 1v18a1 1 0 0 1-1 1Zm-1-2V4h-14v16h14Zm-10-14v2a3 3 0 1 0 6 0V6h2v2a5 5 0 0 1-10 0V6h2Z" />
    </symbol>
    <symbol viewBox="0 0 24 24" id="caret" xmlns="http://www.w3.org/2000/svg">
        <path d="m12 15-4.243-4.242L9.17 9.344 12 12.172l2.828-2.828 1.414 1.414L12 15.001Z" />
    </symbol>
    <symbol viewBox="0 0 24 24" id="cart" xmlns="http://www.w3.org/2000/svg">
        <path d="M7.005 8V6a5 5 0 0 1 10 0v2h3a1 1 0 0 1 1 1v12a1 1 0 0 1-1 1h-16a1 1 0 0 1-1-1V9a1 1 0 0 1 1-1h3Zm0 2h-2v10h14V10h-2v2h-2v-2h-6v2h-2v-2Zm2-2h6V6a3 3 0 0 0-6 0v2Z" />
    </symbol>
    <symbol viewBox="0 0 24 24" id="check" xmlns="http://www.w3.org/2000/svg">
        <path d="M9.999 15.17 19.19 5.98l1.414 1.414L10 17.999l-6.364-6.364 1.414-1.414 4.95 4.95Z" />
    </symbol>
    <symbol viewBox="0 0 24 24" id="close" xmlns="http://www.w3.org/2000/svg">
        <path d="m12 10.586 4.95-4.95 1.414 1.415-4.95 4.95 4.95 4.95-1.415 1.414-4.95-4.95-4.949 4.95-1.414-1.415 4.95-4.95-4.95-4.95L7.05 5.638l4.95 4.95Z" />
    </symbol>
    <symbol viewBox="0 0 24 24" id="eye" xmlns="http://www.w3.org/2000/svg">
        <path d="M12 3c5.392 0 9.878 3.88 10.819 9-.94 5.12-5.427 9-10.819 9-5.392 0-9.878-3.88-10.818-9C2.122 6.88 6.608 3 12 3Zm0 16a9.005 9.005 0 0 0 8.778-7 9.005 9.005 0 0 0-17.555 0A9.005 9.005 0 0 0 12 19Zm0-2.5a4.5 4.5 0 1 1 0-9 4.5 4.5 0 0 1 0 9Zm0-2a2.5 2.5 0 1 0 0-5 2.5 2.5 0 0 0 0 5Z" />
    </symbol>
    <symbol viewBox="0 0 24 24" id="fb" xmlns="http://www.w3.org/2000/svg">
        <path d="M12.001 2c-5.523 0-10 4.477-10 10 0 4.991 3.657 9.128 8.438 9.878v-6.987h-2.54V12h2.54V9.797c0-2.506 1.492-3.89 3.777-3.89 1.094 0 2.238.195 2.238.195v2.46h-1.26c-1.243 0-1.63.771-1.63 1.562V12h2.773l-.443 2.89h-2.33v6.988C18.343 21.128 22 16.991 22 12c0-5.523-4.477-10-10-10Z" />
    </symbol>
    <symbol viewBox="0 0 24 24" id="instagram" xmlns="http://www.w3.org/2000/svg">
        <path d="M13.028 2c1.125.002 1.696.008 2.189.023l.194.006c.224.008.445.018.712.03 1.064.05 1.79.218 2.427.466.66.254 1.216.597 1.772 1.153a4.908 4.908 0 0 1 1.153 1.772c.247.636.415 1.363.465 2.427.012.267.022.488.03.712l.006.194c.015.493.021 1.064.023 2.19l.001.745v1.31a78.831 78.831 0 0 1-.023 2.188l-.006.194c-.008.224-.018.446-.03.712-.05 1.064-.22 1.79-.466 2.428a4.883 4.883 0 0 1-1.153 1.771 4.915 4.915 0 0 1-1.772 1.154c-.637.246-1.363.415-2.427.465a72.11 72.11 0 0 1-.712.03l-.194.006c-.493.014-1.064.02-2.189.023h-2.055a78.43 78.43 0 0 1-2.189-.022l-.194-.007a63.036 63.036 0 0 1-.712-.03c-1.064-.05-1.79-.219-2.428-.465A4.889 4.889 0 0 1 3.68 20.32a4.904 4.904 0 0 1-1.154-1.771c-.247-.638-.415-1.364-.465-2.428a74.1 74.1 0 0 1-.03-.712l-.005-.194A79.047 79.047 0 0 1 2 13.028v-2.056c.002-1.125.008-1.696.022-2.189l.007-.194c.008-.224.018-.445.03-.712.05-1.065.218-1.79.465-2.427A4.88 4.88 0 0 1 3.68 3.678 4.897 4.897 0 0 1 5.45 2.525c.638-.248 1.363-.415 2.428-.465.266-.012.488-.022.712-.03l.194-.006a79 79 0 0 1 2.188-.023h2.056ZM12 7a5 5 0 1 0 0 10 5 5 0 0 0 0-10Zm0 2a3 3 0 1 1 0 6 3 3 0 0 1 0-6Zm5.25-3.5a1.25 1.25 0 0 0 0 2.499 1.25 1.25 0 0 0 0-2.5Z" />
    </symbol>
    <symbol viewBox="0 0 24 24" id="map-pin" xmlns="http://www.w3.org/2000/svg">
        <path d="m12 23.728-6.364-6.364a9 9 0 1 1 12.728 0L12 23.728Zm4.95-7.778a7 7 0 1 0-9.9 0L12 20.9l4.95-4.95ZM12 13a2 2 0 1 1 0-4 2 2 0 0 1 0 4Z" />
    </symbol>
    <symbol viewBox="0 0 24 24" id="menu" xmlns="http://www.w3.org/2000/svg">
        <path d="M3 4h18v2H3V4Zm0 7h12v2H3v-2Zm0 7h18v2H3v-2Z" />
    </symbol>
    <symbol viewBox="0 0 24 24" id="minus" xmlns="http://www.w3.org/2000/svg">
        <path d="M5 11v2h14v-2H5Z" />
    </symbol>
    <symbol viewBox="0 0 24 24" id="percent" xmlns="http://www.w3.org/2000/svg">
        <path d="M17.505 21.003a3.5 3.5 0 1 1 0-7 3.5 3.5 0 0 1 0 7Zm0-2a1.5 1.5 0 1 0 0-3 1.5 1.5 0 0 0 0 3Zm-11-9a3.5 3.5 0 1 1 0-7 3.5 3.5 0 0 1 0 7Zm0-2a1.5 1.5 0 1 0 0-3 1.5 1.5 0 0 0 0 3Zm12.571-4.486 1.414 1.415L4.934 20.488 3.52 19.074 19.076 3.517Z" />
    </symbol>
    <symbol viewBox="0 0 24 24" id="plus" xmlns="http://www.w3.org/2000/svg">
        <path d="M11 11V5h2v6h6v2h-6v6h-2v-6H5v-2h6Z" />
    </symbol>
    <symbol viewBox="0 0 24 24" id="sale" xmlns="http://www.w3.org/2000/svg">
        <path d="M10.054 2.094a3 3 0 0 1 3.892 0l1.348 1.149a1 1 0 0 0 .57.236l1.765.14a3 3 0 0 1 2.752 2.752l.14 1.766a1 1 0 0 0 .236.569l1.149 1.348a3 3 0 0 1 0 3.892l-1.149 1.348a1 1 0 0 0-.236.569l-.14 1.765a3 3 0 0 1-2.752 2.752l-1.766.14a1 1 0 0 0-.569.237l-1.348 1.148a3 3 0 0 1-3.892 0l-1.348-1.148a1 1 0 0 0-.569-.236l-1.765-.141a3 3 0 0 1-2.752-2.752l-.14-1.765a1 1 0 0 0-.237-.57l-1.148-1.348a3 3 0 0 1 0-3.891l1.148-1.348a1 1 0 0 0 .236-.57l.141-1.765A3 3 0 0 1 6.372 3.62l1.765-.14a1 1 0 0 0 .57-.236l1.347-1.149Zm2.595 1.522a1 1 0 0 0-1.297 0l-1.348 1.15a3 3 0 0 1-1.708.706l-1.765.141a1 1 0 0 0-.917.917l-.141 1.766a3 3 0 0 1-.707 1.707l-1.15 1.348a1 1 0 0 0 0 1.297l1.15 1.348a3 3 0 0 1 .707 1.707l.14 1.766a1 1 0 0 0 .918.917l1.765.141a3 3 0 0 1 1.708.707l1.348 1.15a1 1 0 0 0 1.297 0l1.348-1.15a3 3 0 0 1 1.707-.707l1.765-.14a1 1 0 0 0 .918-.918l.14-1.766c.05-.629.298-1.226.708-1.707l1.149-1.348a1 1 0 0 0 0-1.297l-1.15-1.348a3 3 0 0 1-.706-1.707l-.141-1.766a1 1 0 0 0-.918-.917l-1.765-.14a3 3 0 0 1-1.707-.708l-1.348-1.149Zm2.18 4.141 1.414 1.414-7.071 7.072-1.415-1.415 7.071-7.07Zm-4.597 2.475a1.5 1.5 0 1 1-2.121-2.121 1.5 1.5 0 0 1 2.121 2.121Zm3.536 5.657a1.5 1.5 0 1 0 2.121-2.121 1.5 1.5 0 0 0-2.121 2.12Z" />
    </symbol>
    <symbol viewBox="0 0 24 24" id="search" xmlns="http://www.w3.org/2000/svg">
        <path d="m18.031 16.617 4.283 4.282-1.415 1.415-4.282-4.283A8.96 8.96 0 0 1 11 20c-4.968 0-9-4.032-9-9s4.032-9 9-9 9 4.032 9 9a8.96 8.96 0 0 1-1.969 5.617Zm-2.006-.742A6.977 6.977 0 0 0 18 11c0-3.867-3.133-7-7-7s-7 3.133-7 7 3.133 7 7 7a6.977 6.977 0 0 0 4.875-1.975l.15-.15Z" />
    </symbol>
    <symbol viewBox="0 0 16 16" id="star" xmlns="http://www.w3.org/2000/svg">
        <path d="m8 12.174-4.702 2.632 1.05-5.286L.392 5.861l5.351-.634L8 .333l2.257 4.894 5.352.634-3.957 3.66 1.05 5.285L8 12.174Z" />
    </symbol>
    <symbol viewBox="0 0 48 48" id="success" xmlns="http://www.w3.org/2000/svg">
        <path d="M8 24c0-8.837 7.163-16 16-16s16 7.163 16 16-7.163 16-16 16S8 32.837 8 24ZM24 4C12.954 4 4 12.954 4 24s8.954 20 20 20 20-8.954 20-20S35.046 4 24 4Zm10.914 14.914-2.828-2.828L22 26.172l-5.586-5.586-2.828 2.828L22 31.828l12.914-12.914Z" />
    </symbol>
    <symbol viewBox="0 0 24 24" id="telegram" xmlns="http://www.w3.org/2000/svg">
        <path d="M22 12c0 5.523-4.477 10-10 10S2 17.523 2 12 6.477 2 12 2s10 4.477 10 10Zm-9.642-2.618c-.972.405-2.916 1.242-5.831 2.513-.474.188-.722.372-.744.552-.038.304.343.424.862.587l.218.07c.51.166 1.198.36 1.555.368.324.007.685-.127 1.084-.4 2.724-1.84 4.13-2.769 4.218-2.789.063-.014.149-.032.207.02.059.052.053.15.047.177-.038.161-1.534 1.552-2.308 2.271-.23.215-.456.434-.683.653-.474.457-.83.8.02 1.36.861.568 1.73 1.134 2.57 1.733.414.296.786.56 1.246.519.267-.025.543-.276.683-1.026.332-1.77.983-5.608 1.133-7.19a1.764 1.764 0 0 0-.017-.393.421.421 0 0 0-.142-.27c-.12-.098-.305-.118-.387-.117-.376.007-.953.207-3.73 1.362Z" />
    </symbol>
    <symbol viewBox="0 0 24 24" id="tiktok" xmlns="http://www.w3.org/2000/svg">
        <path d="M16 8.245V15.5a6.5 6.5 0 1 1-5-6.326v3.163a3.5 3.5 0 1 0 2 3.163V2h3a5 5 0 0 0 5 5v3a7.966 7.966 0 0 1-5-1.755Z" />
    </symbol>
    <symbol viewBox="0 0 24 24" id="trash" xmlns="http://www.w3.org/2000/svg">
        <path d="M17 6h5v2h-2v13a1 1 0 0 1-1 1H5a1 1 0 0 1-1-1V8H2V6h5V3a1 1 0 0 1 1-1h8a1 1 0 0 1 1 1v3Zm1 2H6v12h12V8Zm-9 3h2v6H9v-6Zm4 0h2v6h-2v-6ZM9 4v2h6V4H9Z" />
    </symbol>
    <symbol viewBox="0 0 24 24" id="unlock" xmlns="http://www.w3.org/2000/svg">
        <path d="M7 10h13a1 1 0 0 1 1 1v10a1 1 0 0 1-1 1H4a1 1 0 0 1-1-1V11a1 1 0 0 1 1-1h1V9a7 7 0 0 1 13.262-3.131l-1.789.894A5 5 0 0 0 7 9v1Zm-2 2v8h14v-8H5Zm5 3h4v2h-4v-2Z" />
    </symbol>
    <symbol viewBox="0 0 24 24" id="user" xmlns="http://www.w3.org/2000/svg">
        <path d="M4 22a8 8 0 1 1 16 0h-2a6 6 0 0 0-12 0H4Zm8-9c-3.315 0-6-2.685-6-6s2.685-6 6-6 6 2.685 6 6-2.685 6-6 6Zm0-2c2.21 0 4-1.79 4-4s-1.79-4-4-4-4 1.79-4 4 1.79 4 4 4Z" />
    </symbol>
    <symbol viewBox="0 0 24 24" id="user-plus" xmlns="http://www.w3.org/2000/svg">
        <path d="M14 14.252v2.09A6 6 0 0 0 6 22H4a8 8 0 0 1 10-7.749ZM12 13c-3.315 0-6-2.685-6-6s2.685-6 6-6 6 2.685 6 6-2.685 6-6 6Zm0-2c2.21 0 4-1.79 4-4s-1.79-4-4-4-4 1.79-4 4 1.79 4 4 4Zm6 6v-3h2v3h3v2h-3v3h-2v-3h-3v-2h3Z" />
    </symbol>
    <symbol viewBox="0 0 24 24" id="vk" xmlns="http://www.w3.org/2000/svg">
        <path d="M4.26 4.26C3 5.532 3 7.566 3 11.64v.72c0 4.068 0 6.102 1.26 7.38C5.532 21 7.566 21 11.64 21h.72c4.068 0 6.102 0 7.38-1.26C21 18.468 21 16.434 21 12.36v-.72c0-4.068 0-6.102-1.26-7.38C18.468 3 16.434 3 12.36 3h-.72C7.572 3 5.538 3 4.26 4.26Zm1.776 4.218H8.1c.066 3.432 1.578 4.884 2.778 5.184V8.478h1.938v2.958c1.182-.126 2.43-1.476 2.85-2.964h1.932a5.717 5.717 0 0 1-2.628 3.738 5.92 5.92 0 0 1 3.078 3.756h-2.13c-.456-1.422-1.596-2.526-3.102-2.676v2.676H12.576c-4.104 0-6.444-2.808-6.54-7.488Z" />
    </symbol>
    <symbol viewBox="0 0 24 24" id="wallet" xmlns="http://www.w3.org/2000/svg">
        <path d="M18.005 7h3a1 1 0 0 1 1 1v12a1 1 0 0 1-1 1h-18a1 1 0 0 1-1-1V4a1 1 0 0 1 1-1h15v4Zm-14 2v10h16V9h-16Zm0-4v2h12V5h-12Zm11 8h3v2h-3v-2Z" />
    </symbol>
    <symbol viewBox="0 0 48 48" id="warning" xmlns="http://www.w3.org/2000/svg">
        <path d="M24 44C12.954 44 4 35.046 4 24S12.954 4 24 4s20 8.954 20 20-8.954 20-20 20Zm0-4c8.837 0 16-7.163 16-16S32.837 8 24 8 8 15.163 8 24s7.163 16 16 16Zm-2-10h4v4h-4v-4Zm0-16h4v12h-4V14Z" />
    </symbol>
    <symbol viewBox="0 0 24 24" id="youtube" xmlns="http://www.w3.org/2000/svg">
        <path d="M12.244 4c.534.003 1.87.016 3.29.073l.504.022c1.429.067 2.857.183 3.566.38.945.266 1.687 1.04 1.938 2.022.4 1.56.45 4.602.456 5.339l.001.152v.174c-.007.737-.057 3.78-.457 5.339-.254.985-.997 1.76-1.938 2.022-.709.197-2.137.313-3.566.38l-.504.023c-1.42.056-2.756.07-3.29.072l-.235.001h-.255c-1.13-.007-5.856-.058-7.36-.476-.944-.266-1.687-1.04-1.938-2.022-.4-1.56-.45-4.602-.456-5.339v-.326c.006-.737.056-3.78.456-5.339.254-.985.997-1.76 1.939-2.021 1.503-.419 6.23-.47 7.36-.476h.489ZM9.999 8.5v7l6-3.5-6-3.5Z" />
    </symbol>
</svg>