<svg width="224" height="64" viewBox="0 0 224 64" fill="none" xmlns="http://www.w3.org/2000/svg">
<path d="M31.7118 0.079131C31.6456 0.128745 31.596 0.591811 31.596 1.10449C31.596 1.61717 31.2652 7.57088 30.8518 14.3515C30.4549 21.1321 30.1076 27.1023 30.091 27.615C30.0579 28.4585 30.0249 28.5412 29.7933 28.3592C29.3468 28.0119 19.1428 18.9656 18.4978 18.3537C16.844 16.7826 18.3325 18.6018 23.145 24.0263L28.4372 29.98L27.5772 30.0957C27.0976 30.1619 20.7305 30.5588 13.4041 30.9888C6.07774 31.4188 0.0578833 31.7826 0.0248071 31.8157C-0.00826904 31.8488 -0.00826904 31.9149 0.0248071 31.948C0.0578833 31.9811 6.07774 32.3449 13.4041 32.7749C20.7305 33.2049 27.0976 33.6018 27.5772 33.668L28.4372 33.7837L23.145 39.7374C20.2509 43.012 17.8694 45.7408 17.8694 45.8234C17.8694 45.9061 18.8121 45.1123 19.9863 44.087C23.7404 40.7297 29.5287 35.6029 29.7933 35.4045C30.0249 35.2225 30.0579 35.3052 30.091 36.1487C30.1076 36.6614 30.4549 42.6316 30.8518 49.4122C31.2652 56.1928 31.596 62.1631 31.596 62.6757C31.596 63.1884 31.6787 63.668 31.7614 63.7176C31.8606 63.7673 31.9267 63.7507 31.9267 63.668C31.9267 63.2877 33.5806 35.7352 33.6136 35.4872C33.6467 35.2887 35.532 36.8598 39.6996 40.5643C43.0073 43.5081 45.7526 45.8896 45.7857 45.8565C45.8187 45.8234 43.4538 43.0947 40.5265 39.7871L35.1847 33.7837L36.0778 33.668C36.5739 33.6018 60.2234 33.2049 88.6523 32.7749C117.081 32.3449 140.367 31.9645 140.4 31.9315C140.433 31.9149 140.433 31.8488 140.4 31.8157C140.367 31.7992 117.048 31.4188 88.5696 30.9888C60.0911 30.5588 36.4416 30.1619 35.9951 30.0957L35.1847 29.98L40.5265 23.9767C43.4538 20.669 45.8187 17.9403 45.7857 17.9072C45.7526 17.8741 43.0073 20.2556 39.6996 23.1994C35.5155 26.9039 33.6467 28.475 33.6136 28.2766C33.5971 28.1277 33.2002 21.7109 32.7537 14.0373C32.2906 6.34706 31.8937 0.0460549 31.8606 0.0129787C31.8441 -0.0200974 31.7614 0.0129787 31.7118 0.079131Z" fill="black"/>
<path d="M58.0569 8.99314C56.1881 9.35697 54.2366 10.3989 52.9467 11.7054C51.2598 13.4088 50.4164 15.5257 50.4164 17.9899C50.4164 21.1817 51.8552 23.8278 54.6005 25.5974C57.2962 27.3339 61.0834 27.5489 64.1099 26.11C65.1683 25.6139 67.1529 24.0593 67.1529 23.7286C67.1529 23.5466 65.7141 22.4551 65.4825 22.4551C65.4329 22.4551 65.0691 22.7528 64.6722 23.1167C63.713 24.0097 62.1749 24.7374 60.8353 24.9689C56.9489 25.6139 53.1121 22.5709 52.8144 18.6183C52.7648 17.9568 52.8144 16.9976 52.9136 16.5014C53.6744 12.9292 57.3293 10.3989 60.8684 11.0108C62.2411 11.2589 63.7791 12.0031 64.6722 12.8465C65.0691 13.2103 65.4329 13.5246 65.466 13.5246C65.6975 13.5246 67.1529 12.4331 67.1529 12.2511C67.1529 12.0031 65.7637 10.7958 64.8541 10.25C63.3987 9.39005 62.0592 9.02621 60.2069 8.9766C59.2477 8.94352 58.2885 8.96006 58.0569 8.99314Z" fill="black"/>
<path d="M205.825 9.05931C204.75 9.4893 204.766 11.0273 205.841 11.4739C206.9 11.9204 207.892 11.3581 207.892 10.3162C207.892 9.68775 207.726 9.40661 207.214 9.142C206.701 8.86085 206.321 8.84431 205.825 9.05931Z" fill="black"/>
<path d="M140.417 17.9899V26.755H146.453H152.489V25.7628V24.7705H147.611H142.732L142.765 21.6613L142.815 18.5687L147.164 18.5191L151.497 18.486V17.4937V16.5014H147.114H142.732V13.8553V11.2093H147.528H152.324V10.217V9.22469H146.37H140.417V17.9899Z" fill="black"/>
<path d="M170.516 12.6977V14.1861H169.358H168.201V15.0957V16.0053H169.358H170.516V20.1398C170.516 23.5136 170.565 24.4066 170.78 24.9028C171.392 26.3912 172.864 27.2016 174.733 27.0362C175.312 27.0031 175.858 26.9039 175.957 26.8543C176.056 26.7881 176.139 26.3416 176.139 25.862V25.002H174.898C173.774 25.0185 173.625 24.9855 173.212 24.5555L172.749 24.1089L172.699 20.0571L172.649 16.0218L174.353 15.9722L176.056 15.9226V15.0957V14.2688L174.369 14.2192L172.666 14.1696V12.6977V11.2093H171.591H170.516V12.6977Z" fill="black"/>
<path d="M196.481 12.6977V14.1861H195.323H194.165V15.0957V16.0053H195.323H196.481V20.1398C196.481 23.5136 196.53 24.4066 196.745 24.9028C197.357 26.3912 198.829 27.2016 200.698 27.0362C201.277 27.0031 201.822 26.9039 201.922 26.8543C202.021 26.7881 202.104 26.3416 202.104 25.862V25.002H200.863C199.739 25.0185 199.59 24.9855 199.176 24.5555L198.713 24.1089L198.664 20.0571L198.614 16.0218L200.317 15.9722L202.021 15.9226V15.0957V14.2688L200.334 14.2192L198.631 14.1696V12.6977V11.2093H197.556H196.481V12.6977Z" fill="black"/>
<path d="M75.5542 14.0207C75.1242 14.1034 74.3469 14.3515 73.8342 14.583C71.2047 15.7903 69.832 18.0891 69.9974 20.9502C70.1628 23.8113 72.0812 26.077 75.0084 26.8377C79.176 27.9127 83.294 25.432 83.8232 21.4959C84.3359 17.8079 81.9544 14.6326 78.2168 14.0373C77.0261 13.8388 76.6788 13.8388 75.5542 14.0207ZM79.1099 16.3361C82.4671 17.9237 82.5333 22.8521 79.2091 24.572C78.2003 25.1012 78.0845 25.1343 76.7449 25.0682C74.595 24.9524 73.2223 24.0263 72.5277 22.2402C72.0977 21.0825 72.23 19.1145 72.8254 18.1056C74.0161 16.088 76.8772 15.2776 79.1099 16.3361Z" fill="black"/>
<path d="M90.7031 14.0207C88.5035 14.4838 87.1639 15.8399 87.1639 17.6095C87.1639 18.5687 87.5608 19.2798 88.4539 19.9248C89.0492 20.3713 89.6446 20.5863 92.7703 21.4629C94.8045 22.0417 95.466 23.1167 94.5068 24.2578C94.0272 24.8366 93.2334 25.1012 91.9599 25.1012C90.7196 25.1012 89.9423 24.8532 89.0658 24.1751L88.3216 23.6128L87.4616 24.1916L86.6016 24.7539L87.2631 25.3658C88.9169 26.937 91.6953 27.4993 94.1264 26.755C96.8387 25.9447 98.0294 23.4144 96.6402 21.4298C96.0614 20.5863 94.4903 19.8091 92.1584 19.2302C90.025 18.701 89.4792 18.3702 89.4792 17.5929C89.4792 16.8653 89.8431 16.4187 90.7196 16.0714C91.9765 15.5918 93.5641 15.9557 94.6391 16.948L95.0856 17.3614L96.0283 16.8157L96.9875 16.2699L96.1275 15.4926C95.6314 15.0461 94.8872 14.5665 94.3745 14.368C93.2995 13.9711 91.6623 13.8057 90.7031 14.0207Z" fill="black"/>
<path d="M105.637 14.0207C104.678 14.2688 104.115 14.6161 103.47 15.3769L102.875 16.0714V15.1288V14.1861H101.8H100.725V20.4706V26.755H101.784H102.842L102.908 22.5709C102.958 18.6514 102.974 18.3702 103.322 17.7253C104.463 15.5918 107.043 15.228 108.366 17.0141C108.862 17.6756 108.994 18.9987 108.994 22.9678V26.755H110.053H111.111L111.177 22.5709C111.227 18.6514 111.243 18.3702 111.591 17.7253C112.732 15.5918 115.312 15.228 116.635 17.0141C117.131 17.6756 117.263 18.9987 117.263 22.9678V26.755H118.338H119.413V22.4551C119.413 17.6922 119.297 16.8653 118.537 15.7076C117.743 14.5334 116.569 13.9546 114.948 13.9546C113.063 13.9546 111.723 14.6657 110.88 16.1045C110.714 16.3857 110.681 16.3857 110.433 15.9226C109.656 14.4176 107.489 13.5577 105.637 14.0207Z" fill="black"/>
<path d="M128.476 14.0207C128.046 14.1034 127.269 14.3515 126.756 14.583C124.127 15.7903 122.754 18.0891 122.919 20.9502C123.085 23.8113 125.003 26.077 127.93 26.8377C132.098 27.9127 136.216 25.432 136.745 21.4959C137.258 17.8079 134.876 14.6326 131.139 14.0373C129.948 13.8388 129.601 13.8388 128.476 14.0207ZM132.032 16.3361C135.389 17.9237 135.455 22.8521 132.131 24.572C131.122 25.1012 131.006 25.1343 129.667 25.0682C127.517 24.9524 126.144 24.0263 125.45 22.2402C125.02 21.0825 125.152 19.1145 125.747 18.1056C126.938 16.088 129.799 15.2776 132.032 16.3361Z" fill="black"/>
<path d="M159.501 14.0207C157.302 14.4838 155.962 15.8399 155.962 17.6095C155.962 18.5687 156.359 19.2798 157.252 19.9248C157.848 20.3713 158.443 20.5863 161.569 21.4629C163.603 22.0417 164.264 23.1167 163.305 24.2578C162.826 24.8366 162.032 25.1012 160.758 25.1012C159.518 25.1012 158.741 24.8532 157.864 24.1751L157.12 23.6128L156.26 24.1916L155.4 24.7539L156.062 25.3658C157.715 26.937 160.494 27.4993 162.925 26.755C165.637 25.9447 166.828 23.4144 165.439 21.4298C164.86 20.5863 163.289 19.8091 160.957 19.2302C158.823 18.701 158.278 18.3702 158.278 17.5929C158.278 16.8653 158.641 16.4187 159.518 16.0714C160.775 15.5918 162.363 15.9557 163.438 16.948L163.884 17.3614L164.827 16.8157L165.786 16.2699L164.926 15.4926C164.43 15.0461 163.686 14.5665 163.173 14.368C162.098 13.9711 160.461 13.8057 159.501 14.0207Z" fill="black"/>
<path d="M183.796 14.1034C181.729 14.5665 180.025 15.9226 179.149 17.7914C178.752 18.6183 178.702 18.9325 178.702 20.4706C178.702 22.0086 178.752 22.3063 179.149 23.1497C180.29 25.5974 182.787 27.0858 185.747 27.0858C187.633 27.0858 189.832 26.1597 190.825 24.9524C191.536 24.0759 191.602 23.9105 191.304 23.712C191.155 23.5963 190.742 23.3978 190.362 23.282L189.683 23.0671L189.171 23.6955C188.41 24.6051 187.236 25.1012 185.797 25.1012C184.358 25.1012 183.333 24.7705 182.423 23.9932C181.778 23.4474 180.935 22.0252 180.935 21.4959C180.935 21.3471 182.159 21.2975 186.475 21.2975H192.015V20.3383C192.015 16.088 188.112 13.1277 183.796 14.1034ZM186.789 16.0714C187.219 16.2037 187.831 16.4849 188.129 16.6834C188.79 17.1464 189.535 18.2379 189.535 18.7672V19.1475H185.317C182.506 19.1475 181.1 19.0979 181.1 18.9821C181.1 18.5522 181.811 17.4772 182.456 16.9314C183.631 15.9226 185.235 15.6084 186.789 16.0714Z" fill="black"/>
<path d="M216.558 14.1034C213.118 14.8476 211.034 17.5268 211.233 20.9502C211.431 24.4893 214.408 27.0858 218.228 27.0858C220.279 27.0858 222.015 26.3581 223.289 24.9855L224 24.2082L223.024 23.7451L222.032 23.282L221.453 23.8609C220.593 24.6878 219.584 25.1012 218.294 25.1012C216.227 25.1012 214.573 24.109 213.846 22.4221C213.316 21.1817 213.416 19.2137 214.077 18.0891C215.499 15.658 219.303 15.0792 221.321 17.0141L222.015 17.6756L222.859 17.3118C223.305 17.1299 223.752 16.9149 223.818 16.8487C224 16.6668 222.644 15.2942 221.767 14.7815C220.957 14.3184 219.121 13.8553 218.146 13.8719C217.831 13.8719 217.104 13.9876 216.558 14.1034Z" fill="black"/>
<path d="M205.411 20.4706V26.755H206.486H207.561V20.4706V14.1861H206.486H205.411V20.4706Z" fill="black"/>
</svg>
